<?xml version="1.0" encoding="UTF-8" standalone="no"?>
<!DOCTYPE svg PUBLIC "-//W3C//DTD SVG 1.1//EN"
 "http://www.w3.org/Graphics/SVG/1.1/DTD/svg11.dtd">
<!-- Generated by graphviz version 2.40.1 (20161225.0304)
 -->
<!-- Title: dependencies Pages: 1 -->
<svg width="504pt" height="284pt"
 viewBox="0.00 0.00 504.00 284.00" xmlns="http://www.w3.org/2000/svg" xmlns:xlink="http://www.w3.org/1999/xlink">
<g id="graph0" class="graph" transform="scale(1 1) rotate(0) translate(4 280)">
<title>dependencies</title>
<polygon fill="#ffffff" stroke="transparent" points="-4,4 -4,-280 500,-280 500,4 -4,4"/>
<text text-anchor="start" x="227.0091" y="-42.4" font-family="sans-serif" font-weight="bold" font-size="14.00" fill="#000000">Legend</text>
<polygon fill="#ffffb3" stroke="transparent" points="14,-10 14,-30 34,-30 34,-10 14,-10"/>
<text text-anchor="start" x="37.629" y="-15.4" font-family="sans-serif" font-size="14.00" fill="#000000"> &#160;Declarations</text>
<polygon fill="#8dd3c7" stroke="transparent" points="127,-10 127,-30 147,-30 147,-10 127,-10"/>
<text text-anchor="start" x="150.7251" y="-15.4" font-family="sans-serif" font-size="14.00" fill="#000000"> &#160;Module</text>
<polygon fill="#80b1d3" stroke="transparent" points="213,-10 213,-30 233,-30 233,-10 213,-10"/>
<text text-anchor="start" x="236.7812" y="-15.4" font-family="sans-serif" font-size="14.00" fill="#000000"> &#160;Bootstrap</text>
<polygon fill="#fdb462" stroke="transparent" points="310,-10 310,-30 330,-30 330,-10 310,-10"/>
<text text-anchor="start" x="333.6732" y="-15.4" font-family="sans-serif" font-size="14.00" fill="#000000"> &#160;Providers</text>
<polygon fill="#fb8072" stroke="transparent" points="406,-10 406,-30 426,-30 426,-10 406,-10"/>
<text text-anchor="start" x="429.7258" y="-15.4" font-family="sans-serif" font-size="14.00" fill="#000000"> &#160;Exports</text>
<g id="clust1" class="cluster">
<title>cluster_CoreModule</title>
<polygon fill="none" stroke="#000000" stroke-dasharray="1,5" points="48,-70 48,-268 448,-268 448,-70 48,-70"/>
</g>
<g id="clust2" class="cluster">
<title>cluster_CoreModule_declarations</title>
<polygon fill="none" stroke="#000000" points="178,-78 178,-130 434,-130 434,-78 178,-78"/>
</g>
<g id="clust5" class="cluster">
<title>cluster_CoreModule_imports</title>
<polygon fill="none" stroke="#000000" points="56,-78 56,-130 170,-130 170,-78 56,-78"/>
</g>
<g id="clust6" class="cluster">
<title>cluster_CoreModule_exports</title>
<polygon fill="none" stroke="#000000" points="56,-208 56,-260 440,-260 440,-208 56,-208"/>
</g>
<!-- FooterComponent -->
<g id="node1" class="node">
<title>FooterComponent</title>
<polygon fill="#ffffb3" stroke="#000000" points="425.8809,-122 308.1191,-122 308.1191,-86 425.8809,-86 425.8809,-122"/>
<text text-anchor="middle" x="367" y="-99.8" font-family="Times,serif" font-size="14.00" fill="#000000">FooterComponent</text>
</g>
<!-- CoreModule -->
<g id="node3" class="node">
<title>CoreModule</title>
<polygon fill="#8dd3c7" stroke="#000000" points="281.2619,-187 278.2619,-191 257.2619,-191 254.2619,-187 194.7381,-187 194.7381,-151 281.2619,-151 281.2619,-187"/>
<text text-anchor="middle" x="238" y="-164.8" font-family="Times,serif" font-size="14.00" fill="#000000">CoreModule</text>
</g>
<!-- FooterComponent&#45;&gt;CoreModule -->
<g id="edge1" class="edge">
<title>FooterComponent&#45;&gt;CoreModule</title>
<path fill="none" stroke="#000000" d="M387.3968,-122.0225C387.3968,-139.3734 387.3968,-163 387.3968,-163 387.3968,-163 291.6134,-163 291.6134,-163"/>
<polygon fill="#000000" stroke="#000000" points="291.6134,-159.5001 281.6134,-163 291.6133,-166.5001 291.6134,-159.5001"/>
</g>
<!-- NavComponent -->
<g id="node2" class="node">
<title>NavComponent</title>
<polygon fill="#ffffb3" stroke="#000000" points="290.1542,-122 185.8458,-122 185.8458,-86 290.1542,-86 290.1542,-122"/>
<text text-anchor="middle" x="238" y="-99.8" font-family="Times,serif" font-size="14.00" fill="#000000">NavComponent</text>
</g>
<!-- NavComponent&#45;&gt;CoreModule -->
<g id="edge2" class="edge">
<title>NavComponent&#45;&gt;CoreModule</title>
<path fill="none" stroke="#000000" d="M238,-122.1061C238,-122.1061 238,-140.991 238,-140.991"/>
<polygon fill="#000000" stroke="#000000" points="234.5001,-140.9909 238,-150.991 241.5001,-140.991 234.5001,-140.9909"/>
</g>
<!-- FooterComponent  -->
<g id="node5" class="node">
<title>FooterComponent </title>
<polygon fill="#fb8072" stroke="#000000" points="431.8814,-252 310.1186,-252 310.1186,-216 431.8814,-216 431.8814,-252"/>
<text text-anchor="middle" x="371" y="-229.8" font-family="Times,serif" font-size="14.00" fill="#000000">FooterComponent </text>
</g>
<!-- CoreModule&#45;&gt;FooterComponent  -->
<g id="edge4" class="edge">
<title>CoreModule&#45;&gt;FooterComponent </title>
<path fill="none" stroke="#000000" stroke-dasharray="5,2" d="M281.494,-175C312.5501,-175 348.8532,-175 348.8532,-175 348.8532,-175 348.8532,-205.9775 348.8532,-205.9775"/>
<polygon fill="#000000" stroke="#000000" points="345.3533,-205.9774 348.8532,-215.9775 352.3533,-205.9775 345.3533,-205.9774"/>
</g>
<!-- NavComponent  -->
<g id="node6" class="node">
<title>NavComponent </title>
<polygon fill="#fb8072" stroke="#000000" points="292.1537,-252 183.8463,-252 183.8463,-216 292.1537,-216 292.1537,-252"/>
<text text-anchor="middle" x="238" y="-229.8" font-family="Times,serif" font-size="14.00" fill="#000000">NavComponent </text>
</g>
<!-- CoreModule&#45;&gt;NavComponent  -->
<g id="edge5" class="edge">
<title>CoreModule&#45;&gt;NavComponent </title>
<path fill="none" stroke="#000000" stroke-dasharray="5,2" d="M238,-187.1061C238,-187.1061 238,-205.991 238,-205.991"/>
<polygon fill="#000000" stroke="#000000" points="234.5001,-205.9909 238,-215.991 241.5001,-205.991 234.5001,-205.9909"/>
</g>
<!-- SharedModule  -->
<g id="node7" class="node">
<title>SharedModule </title>
<polygon fill="#fb8072" stroke="#000000" points="165.9222,-252 64.0778,-252 64.0778,-216 165.9222,-216 165.9222,-252"/>
<text text-anchor="middle" x="115" y="-229.8" font-family="Times,serif" font-size="14.00" fill="#000000">SharedModule </text>
</g>
<!-- CoreModule&#45;&gt;SharedModule  -->
<g id="edge6" class="edge">
<title>CoreModule&#45;&gt;SharedModule </title>
<path fill="none" stroke="#000000" stroke-dasharray="5,2" d="M194.4889,-175C164.2997,-175 129.487,-175 129.487,-175 129.487,-175 129.487,-205.9775 129.487,-205.9775"/>
<polygon fill="#000000" stroke="#000000" points="125.9871,-205.9774 129.487,-215.9775 132.9871,-205.9775 125.9871,-205.9774"/>
</g>
<!-- SharedModule -->
<g id="node4" class="node">
<title>SharedModule</title>
<polygon fill="#8dd3c7" stroke="#000000" points="162.4231,-122 159.4231,-126 138.4231,-126 135.4231,-122 63.5769,-122 63.5769,-86 162.4231,-86 162.4231,-122"/>
<text text-anchor="middle" x="113" y="-99.8" font-family="Times,serif" font-size="14.00" fill="#000000">SharedModule</text>
</g>
<!-- SharedModule&#45;&gt;CoreModule -->
<g id="edge3" class="edge">
<title>SharedModule&#45;&gt;CoreModule</title>
<path fill="none" stroke="#000000" d="M96.763,-122.0225C96.763,-139.3734 96.763,-163 96.763,-163 96.763,-163 184.4718,-163 184.4718,-163"/>
<polygon fill="#000000" stroke="#000000" points="184.4718,-166.5001 194.4718,-163 184.4717,-159.5001 184.4718,-166.5001"/>
</g>
</g>
</svg>
